# xmcd CD database file
#
# Track frame offsets:
#	150
#	15233
#	40277
#	60830
#	87819
#	123082
#	145497
#	167598
#	189615
#	206115
#	226449
#	248564
#	262309
#
# Disc length: 3768 seconds
#
# Revision: 2
# Processed by: cddbd v1.5.2PL0 Copyright (c) Steve Scherf et al.
# Submitted via: CDex 1.51
#
DISCID=ab0eb60d
DTITLE=Otis Grand - Blues '65
DYEAR=2013
DGENRE=Blues
TTITLE0=Artista sconosciuto - 01 Pretend
TTITLE1=Artista sconosciuto - 02 Who Will The Next Fool Be
TTITLE2=Artista sconosciuto - 03 Bad News Blues On TV
TTITLE3=Artista sconosciuto - 04 Rumba Conga Twist
TTITLE4=Artista sconosciuto - 05 Do You Remember When
TTITLE5=Artista sconosciuto - 06 I Washed My Hands In Muddy Water
TTITLE6=Artista sconosciuto - 07 Midnigt Blues
TTITLE7=Artista sconosciuto - 08 Please Don't Leave
TTITLE8=Artista sconosciuto - 09 In Your Backyard
TTITLE9=Artista sconosciuto - 10 The Shag Shuffle
TTITLE10=Artista sconosciuto - 11 Warning Blues
TTITLE11=Artista sconosciuto - 12 These Days Are Gone
TTITLE12=Artista sconosciuto - 13 Baby Please Don't Tease
EXTD=YEAR: 2013
EXTT0=
EXTT1=
EXTT2=
EXTT3=
EXTT4=
EXTT5=
EXTT6=
EXTT7=
EXTT8=
EXTT9=
EXTT10=
EXTT11=
EXTT12=
PLAYORDER=
